<?xml version="1.0" encoding="utf-8"?>
<!-- Generator: Adobe Illustrator 25.0.0, SVG Export Plug-In . SVG Version: 6.00 Build 0)  -->
<svg version="1.1" xmlns="http://www.w3.org/2000/svg" xmlns:xlink="http://www.w3.org/1999/xlink" x="0px" y="0px"
	 viewBox="0 0 612 792" style="enable-background:new 0 0 612 792;" xml:space="preserve">
<style type="text/css">
	.st0{fill:url(#SVGID_1_);stroke:#2A4C9B;stroke-miterlimit:10;}
	.st1{fill:#F6F6F6;stroke:#F6F6F6;stroke-width:6;stroke-miterlimit:10;}
	.st2{fill:#F6F6F6;}
	.st3{fill:#FFFFFF;}
	.st4{fill:none;stroke:#FFFFFF;stroke-width:8;stroke-miterlimit:10;}
	.st5{fill:none;}
</style>
<g id="Layer_1">
	<linearGradient id="SVGID_1_" gradientUnits="userSpaceOnUse" x1="-50.5" y1="753.9211" x2="662.9211" y2="40.5">
		<stop  offset="0" style="stop-color:#5CB9E9"/>
		<stop  offset="1" style="stop-color:#344899"/>
	</linearGradient>
	<rect x="-4.84" y="-5.16" class="st0" width="622.11" height="804.74"/>
	<g>
		<path class="st1" d="M354.54,359.02v1.68c-30.04,2.17-54.1,25.76-56.35,55.22h-1.68C298.76,385.53,323.57,361.2,354.54,359.02z"/>
		<path class="st1" d="M354.54,480.21v1.68c-30.96-2.18-55.77-26.52-58.04-56.9h1.68C300.44,454.45,324.5,478.04,354.54,480.21z"/>
		<path class="st1" d="M419.95,424.99h1.68c-2.26,30.39-27.07,54.73-58.04,56.9v-1.68C393.63,478.04,417.7,454.45,419.95,424.99z"/>
		<path class="st1" d="M363.6,360.7v-1.68c30.96,2.18,55.77,26.52,58.04,56.9h-1.68C417.7,386.46,393.63,362.87,363.6,360.7z"/>
	</g>
	<g>
		<path class="st1" d="M355.69,374.95v1.25c-22.39,1.61-40.32,19.08-42,40.91h-1.25C314.12,394.59,332.61,376.56,355.69,374.95z"/>
		<path class="st1" d="M355.69,464.72v1.25c-23.08-1.61-41.57-19.64-43.26-42.15h1.25C315.37,445.64,333.3,463.11,355.69,464.72z"/>
		<path class="st1" d="M404.45,423.81h1.25c-1.69,22.51-20.18,40.54-43.26,42.15v-1.25C384.83,463.11,402.77,445.64,404.45,423.81z"
			/>
		<path class="st1" d="M405.7,417.1h-1.25c-1.68-21.82-19.62-39.3-42-40.91v-1.25C385.53,376.56,404.02,394.59,405.7,417.1z"/>
	</g>
	<g>
		<path class="st2" d="M360.91,429.52v1.2c-0.6,0.11-1.22,0.16-1.85,0.16c-0.63,0-1.25-0.06-1.85-0.16v-1.2
			c0-1.02,0.83-1.85,1.85-1.85C360.09,427.67,360.91,428.49,360.91,429.52z"/>
		<path class="st2" d="M359.07,434.03c0.62,0,1.24-0.04,1.85-0.12v54.87c0,1.02-0.83,1.85-1.85,1.85c-1.02,0-1.85-0.83-1.85-1.85
			v-54.87C357.83,433.99,358.44,434.03,359.07,434.03z"/>
		<path class="st2" d="M360.91,352.13v54.87c-0.6-0.08-1.22-0.12-1.85-0.12s-1.24,0.04-1.85,0.12v-54.87c0-1.02,0.83-1.85,1.85-1.85
			C360.09,350.28,360.91,351.11,360.91,352.13z"/>
		<path class="st2" d="M359.07,410.03c0.63,0,1.25,0.06,1.85,0.16v1.2c0,1.02-0.83,1.85-1.85,1.85c-1.02,0-1.85-0.83-1.85-1.85v-1.2
			C357.82,410.08,358.44,410.03,359.07,410.03z"/>
		<path class="st2" d="M345.42,418.61c-0.08,0.6-0.13,1.22-0.13,1.85c0,0.63,0.04,1.24,0.13,1.85h-53.36
			c-1.02,0-1.85-0.83-1.85-1.85c0-1.02,0.83-1.85,1.85-1.85H345.42z"/>
		<path class="st2" d="M353.18,420.45c0,1.02-0.83,1.85-1.85,1.85h-2.52c-0.11-0.6-0.16-1.22-0.16-1.85c0-0.63,0.06-1.25,0.16-1.85
			h2.52C352.35,418.61,353.18,419.43,353.18,420.45z"/>
		<path class="st2" d="M369.33,418.61c0.11,0.6,0.16,1.22,0.16,1.85c0,0.63-0.06,1.25-0.16,1.85h-2.52c-1.02,0-1.85-0.83-1.85-1.85
			c0-1.02,0.83-1.85,1.85-1.85H369.33z"/>
		<path class="st2" d="M427.92,420.45c0,1.02-0.83,1.85-1.85,1.85h-53.36c0.08-0.6,0.13-1.22,0.13-1.85c0-0.63-0.04-1.24-0.13-1.85
			h53.36C427.09,418.61,427.92,419.43,427.92,420.45z"/>
		<path class="st3" d="M369.33,418.61c-0.77-4.27-4.14-7.65-8.42-8.42c-0.6-0.11-1.22-0.16-1.85-0.16c-0.63,0-1.25,0.06-1.85,0.16
			c-4.27,0.77-7.65,4.14-8.42,8.42c-0.11,0.6-0.16,1.22-0.16,1.85c0,0.63,0.06,1.25,0.16,1.85c0.77,4.27,4.14,7.65,8.42,8.42
			c0.6,0.11,1.22,0.16,1.85,0.16c0.63,0,1.25-0.06,1.85-0.16c4.27-0.77,7.65-4.15,8.42-8.42c0.11-0.6,0.16-1.22,0.16-1.85
			C369.49,419.82,369.44,419.2,369.33,418.61z M354.01,420.45c0-2.79,2.27-5.06,5.06-5.06c2.79,0,5.06,2.27,5.06,5.06
			c0,2.79-2.27,5.06-5.06,5.06C356.28,425.51,354.01,423.24,354.01,420.45z"/>
	</g>
</g>
<g id="Layer_2">
	<g>
		<path class="st2" d="M-339.88,136.02c0.24-22.01,4.8-43.12,14.4-63.21c10.86-22.69,27.12-40.34,48.31-53.28
			c10.44-6.37,21.92-11.06,33.93-14.13c21.98-5.63,44.28-6.19,66.78-4.68c19.22,1.29,37.27,6.49,54.42,15.1
			c2.97,1.5,6.1,2.81,8.79,4.72c11.97,8.46,22.61,18.21,31.4,30.13c7.2,9.78,13.24,20.15,18.34,31.03
			c9,19.21,13.6,39.71,16.63,60.62c0.74,5.07,0.28,9.42-3.5,13.08c-2.36,2.29-2.23,4.77-0.4,7.25c6.89,9.28,12.53,19.35,18.33,29.31
			c3.93,6.74,8.12,13.35,11.17,20.59c3.74,8.84,1.82,13.39-7.36,16.47c-3.4,1.14-6.86,2.13-10.03,3.86
			c-3.02,1.65-4.13,4.03-2.92,7.39c1.22,3.38,2.3,6.81,2.82,10.38c0.66,4.59-0.31,6.2-4.63,8.01c-2.08,0.88-4.59,0.83-6.47,3.13
			c0.92,0.38,1.5,0.62,2.08,0.86c2.91,1.18,6.08,2.53,6.34,6c0.26,3.38-1.91,5.99-4.69,7.91c-0.43,0.29-0.85,0.58-1.27,0.88
			c-4.64,3.27-5.3,5.1-3.07,10.37c1.96,4.63,3.5,9.34,4.28,14.33c2.82,18.02-6.54,28.93-24.71,29.44
			c-11.41,0.32-22.42-2.13-33.57-3.66c-10.6-1.44-14.85,1.52-16.37,12c-1.54,10.52-2.06,21.17-3.91,31.67
			c-0.65,3.66-1.99,5.2-5.94,5.19c-53.58-0.11-107.16-0.06-160.74-0.08c-4.61,0-5.07-0.77-3.16-4.85c0.43-0.93,0.95-1.82,1.38-2.75
			c4.81-10.25,8.59-20.85,10.8-31.98c3.47-17.4,3.37-34.91,1.39-52.44c-1.16-10.23-3.33-20.16-7.81-29.6
			c-4.27-8.97-11.37-15.76-17.21-23.49c-10.12-13.38-18.74-27.5-24.77-43.18C-337.31,171.54-340.07,153.94-339.88,136.02z
			 M-308.81,158.28c1.58,5.29,5.19,9.11,9.85,11.84c2.08,1.23,2.73,2.51,2.39,4.96c-1.27,9.25,1.65,16.93,9.31,22.54
			c2.62,1.92,5.75,1.96,8.83,2.01c2.47,0.09,4.87-0.39,7.2-1.09c2.26-0.68,3.24,0.11,3.78,2.35c1.15,4.87,2.5,9.7,5.03,14.08
			c6.26,10.85,16.77,14.61,27.34,9.5c3.91-1.89,7.1-4.99,10.1-8.14c1.91-2.01,2.86-1.68,3.37,1.04c1.14,6.04,2.51,12.05,3.56,18.11
			c0.44,2.48,1.48,3.45,4.02,3.51c6.5,0.15,6.38,0.21,8.34-6.04c3.53-11.24,6.3-22.72,11.58-33.39c2.38-4.83,5.94-7.83,10.61-10.01
			c5.84-2.73,12.42-3.04,18.26-5.75c2.55-1.19,5.32-1.94,7.79-3.25c7.94-4.22,13.77-11.16,9.32-22.59c-1.1-2.82-0.76-3.8,2.48-3.97
			c9.09-0.5,18.06-1.97,26.98-3.8c4.17-0.86,8.1-2.12,11.87-4.21c5.73-3.17,9-7.46,8.14-14.28c-0.19-1.5-0.6-3.21,1.67-3.6
			c7.43-1.3,10.13-6.83,11.52-13.26c2.77-12.75-4.47-29.62-15.61-36.5c-2.11-1.31-3.38-2.46-3.14-5.38
			c0.43-5.23-4.89-10.69-11.29-11.68c-3.23-0.5-5.04-1.8-6.67-4.73c-4.26-7.66-17.79-15.41-27.71-12.4
			c-2.99,0.9-4.69,0.09-6.88-2.19c-5.5-5.74-11.76-10.43-20.54-8.75c-0.88,0.17-1.82,0.33-2.56,0.78c-4,2.43-7.22,2.95-11.62-0.47
			c-7.19-5.59-21.35-3.98-28.29,2.13c-1.31,1.14-2.54,1.34-4.21,0.95c-11.26-2.62-17.34-0.13-23.63,9.62
			c-0.62,0.95-1.04,1.51-2.4,1.1c-9.4-2.87-17.62,0.43-22.68,9.42c-1.48,2.62-3.16,3.89-6.05,4.51c-6.72,1.45-9.53,4.96-9.82,11.81
			c-0.09,2.15-0.91,3.5-2.67,4.71c-9.66,6.66-11.84,13.11-8.12,23.95c0.49,1.45,0.12,2.36-0.72,3.47
			C-312.32,121.34-314.54,139.18-308.81,158.28z"/>
	</g>
	<g>
		<path class="st4" d="M207.85,265.89l-33.83,31.55h-32.01v40.61h31.53l34.31,32.01V265.89z"/>
		<path class="st4" d="M224.83,295.3c8.41,13.82,8.41,31.7,0,45.51 M238.83,280.2c15.38,22.51,15.38,53.2,0,75.71 M251.65,266.38
			c22.48,30.19,22.48,73.17,0,103.36"/>
	</g>
	<path class="st3" d="M309.39,233.32c-0.51,0.56-0.71,1.15-0.62,1.88c0.14,1.13,0.62,2.17,0.92,3.25c0.7,2.53,1.77,4.92,2.87,7.29
		c0.64,1.38,1.37,2.73,2.19,4.01c1.24,1.93,2.48,3.86,3.95,5.65c0.93,1.13,1.86,2.26,2.85,3.33c1.56,1.69,3.23,3.26,4.99,4.75
		c1.18,1,2.4,1.96,3.65,2.87c2.12,1.54,4.34,2.91,6.64,4.17c2.61,1.43,5.33,2.64,8.1,3.72c3.58,1.39,7.27,2.41,11.04,3.14
		c4.91,0.96,9.87,1.37,14.87,1.27c4.07-0.08,8.1-0.51,12.1-1.31c4.1-0.82,8.09-2,11.96-3.58c2.99-1.21,5.89-2.6,8.69-4.23
		c2.94-1.71,5.73-3.62,8.36-5.77c1.33-1.08,2.59-2.25,3.81-3.46c1.49-1.47,2.87-3.04,4.2-4.65c0.84-1.01,1.62-2.08,2.35-3.17
		c1.48-2.23,2.89-4.49,4.05-6.92c0.81-1.7,1.59-3.4,2.26-5.16c1.08-2.85,1.79-5.77,2.37-8.76c0.81-4.15,0.83-8.32,0.58-12.51
		c-0.17-2.85-0.78-5.64-1.46-8.39c-0.55-2.23-1.32-4.41-2.23-6.52c-0.98-2.29-2.08-4.52-3.35-6.66c-1.05-1.76-2.16-3.48-3.4-5.11
		c-1.4-1.85-2.88-3.64-4.5-5.3c-2.61-2.66-5.44-5.06-8.5-7.21c-4.08-2.87-8.47-5.16-13.07-7.05c-5.24-2.15-10.67-3.59-16.28-4.34
		c-2.57-0.34-5.16-0.6-7.77-0.55c-0.25,0-0.5,0.04-0.74-0.08h-1.39c-0.2,0.1-0.41,0.09-0.62,0.08c-2.1-0.03-4.18,0.15-6.27,0.37
		c-3.67,0.39-7.28,1.09-10.84,2.09c-4.57,1.28-8.96,3.02-13.17,5.22c-3.2,1.67-6.24,3.57-9.09,5.8c-0.56,0.44-1.15,0.83-1.68,1.31
		c-0.35,0.32-0.62,0.25-0.92-0.01c-1.2-1.05-2.39-2.09-3.58-3.14c-1.82-1.6-3.64-3.2-5.45-4.82c-0.73-0.66-1.4-1.38-2.3-1.82
		c-1.66-0.81-3.3-0.59-4.91,0.14c-1.89,0.85-2.71,2.36-2.71,4.41c0.01,10.49,0.04,20.99-0.01,31.48c-0.02,3.25,2.65,5.13,5.26,5.14
		c4.82,0.01,9.65,0,14.47,0h21.71c1.48,0,2.87-0.34,3.88-1.46c1.07-1.19,1.87-2.55,1.43-4.27c-0.19-0.74-0.62-1.4-1.17-1.91
		c-1.59-1.48-3.25-2.88-4.88-4.33c-1.3-1.15-2.59-2.32-3.88-3.48c-0.75-0.67-1.49-1.34-2.26-1.99c-0.37-0.32-0.36-0.56,0.02-0.83
		c1.28-0.91,2.51-1.89,3.83-2.73c2.03-1.3,4.17-2.4,6.4-3.33c3.15-1.3,6.41-2.2,9.78-2.74c3.43-0.55,6.88-0.66,10.34-0.49
		c3.58,0.18,7.11,0.81,10.55,1.88c3.43,1.07,6.71,2.5,9.8,4.33c2.27,1.34,4.39,2.91,6.35,4.69c2.21,2.01,4.16,4.23,5.82,6.71
		c1.32,1.97,2.45,4.02,3.39,6.2c1.22,2.82,1.94,5.75,2.39,8.8c0.36,2.39,0.44,4.76,0.16,7.12c-0.36,3.07-0.97,6.12-2.16,8.99
		c-0.65,1.56-1.36,3.11-2.22,4.56c-1.45,2.47-3.1,4.79-5.08,6.89c-1.9,2.02-3.98,3.83-6.25,5.41c-1.96,1.36-4.04,2.53-6.21,3.54
		c-2.27,1.05-4.58,1.95-6.99,2.62c-3.09,0.87-6.24,1.38-9.46,1.59c-3.64,0.24-7.25,0.03-10.83-0.57c-4.11-0.68-8.05-1.94-11.8-3.79
		c-3.11-1.54-6.01-3.41-8.67-5.62c-1.43-1.19-2.75-2.5-4-3.89c-2.02-2.26-3.7-4.75-5.07-7.43c-0.71-1.39-1.35-2.83-1.83-4.34
		c-0.29-0.92-0.87-1.69-1.94-1.84c-0.41-0.06-0.83-0.1-1.25-0.1c-4.95-0.01-9.9-0.01-14.85,0
		C311.1,232.41,310.14,232.49,309.39,233.32z"/>
	<rect x="205.26" y="167.93" class="st5" width="642.22" height="571.18"/>
</g>
</svg>
